<svg width="40" height="41" viewBox="0 0 40 41" fill="none" xmlns="http://www.w3.org/2000/svg">
<g id="Frame">
<path id="Vector" d="M28.8329 22.9222C28.3957 22.9204 27.9767 22.7468 27.6662 22.4389C27.3558 22.1266 27.1816 21.7042 27.1816 21.2639C27.1816 20.8236 27.3558 20.4012 27.6662 20.0889L31.1996 16.5556C31.5095 16.246 31.7554 15.8784 31.9231 15.4737C32.0909 15.069 32.1772 14.6353 32.1772 14.1972C32.1772 13.7592 32.0909 13.3254 31.9231 12.9208C31.7554 12.5161 31.5095 12.1485 31.1996 11.8389L28.8329 9.47223C28.1955 8.86976 27.3517 8.5341 26.4746 8.5341C25.5975 8.5341 24.7537 8.86976 24.1162 9.47223L20.5829 13.0056C20.2634 13.2612 19.8611 13.3903 19.4525 13.3685C19.0439 13.3466 18.6577 13.1752 18.3674 12.8869C18.077 12.5986 17.9029 12.2136 17.8781 11.8052C17.8533 11.3968 17.9796 10.9935 18.2329 10.6722L21.7662 7.13889C23.0372 5.92644 24.7263 5.25 26.4829 5.25C28.2395 5.25 29.9286 5.92644 31.1996 7.13889L33.5496 9.48889C34.1694 10.108 34.6611 10.8433 34.9966 11.6526C35.3321 12.4619 35.5048 13.3295 35.5048 14.2056C35.5048 15.0817 35.3321 15.9492 34.9966 16.7585C34.6611 17.5678 34.1694 18.3031 33.5496 18.9222L29.9996 22.4389C29.6891 22.7468 29.2701 22.9204 28.8329 22.9222Z" fill="#4B7DFB"/>
<path id="Vector_2" d="M13.517 36.1714C12.6413 36.1721 11.774 36.0003 10.9647 35.6657C10.1554 35.3311 9.41995 34.8403 8.80036 34.2214L6.45036 31.8714C5.83052 31.2523 5.33879 30.517 5.0033 29.7077C4.6678 28.8984 4.49512 28.0309 4.49512 27.1548C4.49512 26.2787 4.6678 25.4112 5.0033 24.6018C5.33879 23.7925 5.83052 23.0573 6.45036 22.4381L10.0004 18.9048C10.3217 18.6514 10.7249 18.5251 11.1333 18.5499C11.5417 18.5747 11.9267 18.7489 12.215 19.0392C12.5033 19.3296 12.6747 19.7158 12.6966 20.1244C12.7185 20.533 12.5893 20.9353 12.3337 21.2548L8.80036 24.7881C8.49044 25.0977 8.24458 25.4653 8.07683 25.87C7.90908 26.2746 7.82274 26.7084 7.82274 27.1464C7.82274 27.5845 7.90908 28.0183 8.07683 28.4229C8.24458 28.8276 8.49044 29.1952 8.80036 29.5048L11.167 31.8714C11.8045 32.4739 12.6483 32.8096 13.5254 32.8096C14.4024 32.8096 15.2463 32.4739 15.8837 31.8714L19.417 28.3381C19.5625 28.1537 19.7452 28.002 19.9534 27.8932C20.1615 27.7843 20.3903 27.7207 20.6248 27.7065C20.8593 27.6922 21.0941 27.7277 21.3139 27.8106C21.5336 27.8935 21.7334 28.0219 21.9001 28.1874C22.0668 28.3529 22.1966 28.5517 22.281 28.7709C22.3655 28.9901 22.4026 29.2247 22.3901 29.4592C22.3775 29.6938 22.3155 29.923 22.2081 30.1319C22.1008 30.3408 21.9504 30.5247 21.767 30.6714L18.2337 34.2048C17.6155 34.8267 16.8806 35.3205 16.0713 35.658C15.2619 35.9955 14.3939 36.1699 13.517 36.1714Z" fill="#4B7DFB"/>
<path id="Vector_3" d="M14.6998 27.6378C14.4804 27.639 14.263 27.597 14.0599 27.5141C13.8569 27.4311 13.6722 27.3089 13.5164 27.1544C13.3602 26.9995 13.2362 26.8152 13.1516 26.6121C13.067 26.409 13.0234 26.1911 13.0234 25.9711C13.0234 25.7511 13.067 25.5333 13.1516 25.3302C13.2362 25.1271 13.3602 24.9427 13.5164 24.7878L24.1331 14.1878C24.4454 13.8774 24.8678 13.7031 25.3081 13.7031C25.7484 13.7031 26.1708 13.8774 26.4831 14.1878C26.6393 14.3427 26.7633 14.5271 26.8479 14.7302C26.9325 14.9333 26.9761 15.1511 26.9761 15.3711C26.9761 15.5911 26.9325 15.809 26.8479 16.0121C26.7633 16.2152 26.6393 16.3995 26.4831 16.5544L15.8664 27.1544C15.556 27.4624 15.137 27.6359 14.6998 27.6378Z" fill="#4B7DFB"/>
</g>
</svg>
